{
  "accessors": [
    {
      "bufferView": 2,
      "componentType": 5126,
      "count": 17297,
      "max": [
        1.1933660507202148,
        2.5659420490264893,
        1.7506829500198364
      ],
      "min": [
        -1.1590689420700073,
        -2.427495002746582,
        0.06660600006580353
      ],
      "type": "VEC3"
    },
    {
      "bufferView": 2,
      "byteOffset": 207564,
      "componentType": 5126,
      "count": 17297,
      "max": [
        1.0,
        1.0,
        1.0
      ],
      "min": [
        -1.0,
        -1.0,
        -1.0
      ],
      "type": "VEC3"
    },
    {
      "bufferView": 3,
      "componentType": 5126,
      "count": 17297,
      "max": [
        1.0,
        1.0,
        1.0,
        1.0
      ],
      "min": [
        -1.0,
        -1.0,
        -1.0,
        -1.0
      ],
      "type": "VEC4"
    },
    {
      "bufferView": 1,
      "componentType": 5126,
      "count": 17297,
      "max": [
        0.9990000128746033,
        0.9994000196456909
      ],
      "min": [
        -0.0020000000949949026,
        0.001500000013038516
      ],
      "type": "VEC2"
    },
    {
      "bufferView": 0,
      "componentType": 5125,
      "count": 59799,
      "type": "SCALAR"
    },
    {
      "bufferView": 2,
      "byteOffset": 415128,
      "componentType": 5126,
      "count": 150,
      "max": [
        0.9921939969062805,
        1.0765880346298218,
        1.3458839654922485
      ],
      "min": [
        -0.9578970074653625,
        -0.762690007686615,
        0.9477859735488892
      ],
      "type": "VEC3"
    },
    {
      "bufferView": 2,
      "byteOffset": 416928,
      "componentType": 5126,
      "count": 150,
      "max": [
        0.9403301477432251,
        0.0600002259016037,
        0.9121844172477722
      ],
      "min": [
        -0.940298318862915,
        -0.4508897364139557,
        0.3383108377456665
      ],
      "type": "VEC3"
    },
    {
      "bufferView": 1,
      "byteOffset": 138376,
      "componentType": 5126,
      "count": 150,
      "max": [
        0.982903003692627,
        0.1417279988527298
      ],
      "min": [
        0.8589270114898682,
        0.018308000639081
      ],
      "type": "VEC2"
    },
    {
      "bufferView": 0,
      "byteOffset": 239196,
      "componentType": 5125,
      "count": 504,
      "type": "SCALAR"
    },
    {
      "bufferView": 2,
      "byteOffset": 418728,
      "componentType": 5126,
      "count": 4284,
      "max": [
        0.9881460070610046,
        0.8225129842758179,
        1.3837820291519165
      ],
      "min": [
        -0.9538490176200867,
        -0.762690007686615,
        0.3287949860095978
      ],
      "type": "VEC3"
    },
    {
      "bufferView": 2,
      "byteOffset": 470136,
      "componentType": 5126,
      "count": 4284,
      "max": [
        1.0,
        1.0,
        1.0
      ],
      "min": [
        -1.0,
        -1.0,
        -1.0
      ],
      "type": "VEC3"
    },
    {
      "bufferView": 3,
      "byteOffset": 276752,
      "componentType": 5126,
      "count": 4284,
      "max": [
        1.0,
        1.0,
        1.0,
        1.0
      ],
      "min": [
        -1.0,
        -1.0,
        -1.0,
        -1.0
      ],
      "type": "VEC4"
    },
    {
      "bufferView": 1,
      "byteOffset": 139576,
      "componentType": 5126,
      "count": 4284,
      "max": [
        0.9980199933052063,
        0.9952049851417542
      ],
      "min": [
        0.0010949999559670687,
        0.0025919999461621046
      ],
      "type": "VEC2"
    },
    {
      "bufferView": 0,
      "byteOffset": 241212,
      "componentType": 5125,
      "count": 16800,
      "type": "SCALAR"
    },
    {
      "bufferView": 2,
      "byteOffset": 521544,
      "componentType": 5126,
      "count": 2996,
      "max": [
        1.1601450443267822,
        2.452054023742676,
        1.4013639688491821
      ],
      "min": [
        -1.1258480548858643,
        -2.272536039352417,
        0.2844580113887787
      ],
      "type": "VEC3"
    },
    {
      "bufferView": 2,
      "byteOffset": 557496,
      "componentType": 5126,
      "count": 2996,
      "max": [
        0.9989201426506042,
        0.9998099207878113,
        0.9999939203262329
      ],
      "min": [
        -0.9989201426506042,
        -0.9877094030380249,
        -0.9998806715011597
      ],
      "type": "VEC3"
    },
    {
      "bufferView": 3,
      "byteOffset": 345296,
      "componentType": 5126,
      "count": 2996,
      "max": [
        1.0,
        0.9979209899902344,
        0.9036298990249634,
        1.0
      ],
      "min": [
        -1.0,
        -0.9999995231628418,
        -0.9907326102256775,
        1.0
      ],
      "type": "VEC4"
    },
    {
      "bufferView": 1,
      "byteOffset": 173848,
      "componentType": 5126,
      "count": 2996,
      "max": [
        0.9869710206985474,
        0.9903439879417419
      ],
      "min": [
        0.006537000183016062,
        0.3517810106277466
      ],
      "type": "VEC2"
    },
    {
      "bufferView": 0,
      "byteOffset": 308412,
      "componentType": 5125,
      "count": 15252,
      "type": "SCALAR"
    },
    {
      "bufferView": 2,
      "byteOffset": 593448,
      "componentType": 5126,
      "count": 4088,
      "max": [
        1.11272394657135,
        1.8379039764404297,
        0.7232649922370911
      ],
      "min": [
        -1.0820189714431763,
        -1.784870982170105,
        -0.01587899960577488
      ],
      "type": "VEC3"
    },
    {
      "bufferView": 2,
      "byteOffset": 642504,
      "componentType": 5126,
      "count": 4088,
      "max": [
        0.9999945163726807,
        0.9999847412109375,
        0.999984860420227
      ],
      "min": [
        -0.9999945163726807,
        -0.9999847412109375,
        -0.999984860420227
      ],
      "type": "VEC3"
    },
    {
      "bufferView": 3,
      "byteOffset": 393232,
      "componentType": 5126,
      "count": 4088,
      "max": [
        0.6952129602432251,
        0.9999924898147583,
        0.9999988675117493,
        1.0
      ],
      "min": [
        -0.6952130794525146,
        -0.9999924898147583,
        -0.9999924898147583,
        1.0
      ],
      "type": "VEC4"
    },
    {
      "bufferView": 1,
      "byteOffset": 197816,
      "componentType": 5126,
      "count": 4088,
      "max": [
        0.9892579913139343,
        0.9927060008049011
      ],
      "min": [
        0.009544000029563904,
        0.014159999787807465
      ],
      "type": "VEC2"
    },
    {
      "bufferView": 0,
      "byteOffset": 369420,
      "componentType": 5125,
      "count": 19584,
      "type": "SCALAR"
    },
    {
      "bufferView": 2,
      "byteOffset": 691560,
      "componentType": 5126,
      "count": 2548,
      "max": [
        1.1082119941711426,
        1.9422160387039185,
        0.8275650143623352
      ],
      "min": [
        -1.0775079727172852,
        -1.8833889961242676,
        -0.1143840029835701
      ],
      "type": "VEC3"
    },
    {
      "bufferView": 2,
      "byteOffset": 722136,
      "componentType": 5126,
      "count": 2548,
      "max": [
        0.9981405735015869,
        0.9999847412109375,
        0.999984860420227
      ],
      "min": [
        -0.9981405735015869,
        -0.9999847412109375,
        -0.999984860420227
      ],
      "type": "VEC3"
    },
    {
      "bufferView": 3,
      "byteOffset": 458640,
      "componentType": 5126,
      "count": 2548,
      "max": [
        0.03550741448998451,
        0.9999924898147583,
        0.9999924898147583,
        1.0
      ],
      "min": [
        -0.035507217049598694,
        -0.9999924898147583,
        -0.9999924898147583,
        1.0
      ],
      "type": "VEC4"
    },
    {
      "bufferView": 1,
      "byteOffset": 230520,
      "componentType": 5126,
      "count": 2548,
      "max": [
        2.0,
        0.9896090030670166
      ],
      "min": [
        0.0,
        0.0
      ],
      "type": "VEC2"
    },
    {
      "bufferView": 0,
      "byteOffset": 447756,
      "componentType": 5125,
      "count": 13824,
      "type": "SCALAR"
    },
    {
      "bufferView": 2,
      "byteOffset": 752712,
      "componentType": 5126,
      "count": 4232,
      "max": [
        1.165173053741455,
        2.495572090148926,
        1.370507001876831
      ],
      "min": [
        -1.1308759450912476,
        -2.3623430728912354,
        0.15424300730228424
      ],
      "type": "VEC3"
    },
    {
      "bufferView": 2,
      "byteOffset": 803496,
      "componentType": 5126,
      "count": 4232,
      "max": [
        1.0,
        1.0,
        0.9999759197235107
      ],
      "min": [
        -1.0,
        -0.999987006187439,
        -1.0
      ],
      "type": "VEC3"
    },
    {
      "bufferView": 3,
      "byteOffset": 499408,
      "componentType": 5126,
      "count": 4232,
      "max": [
        1.0,
        0.9999841451644897,
        1.0,
        1.0
      ],
      "min": [
        -1.0,
        -1.0,
        -0.9999998211860657,
        -1.0
      ],
      "type": "VEC4"
    },
    {
      "bufferView": 1,
      "byteOffset": 250904,
      "componentType": 5126,
      "count": 4232,
      "max": [
        0.9791510105133057,
        0.9969890117645264
      ],
      "min": [
        0.006374000106006861,
        0.008960999548435211
      ],
      "type": "VEC2"
    },
    {
      "bufferView": 0,
      "byteOffset": 503052,
      "componentType": 5125,
      "count": 20346,
      "type": "SCALAR"
    }
  ],
  "asset": {
    "extras": {
      "author": "fred346b (https://sketchfab.com/fred346b)",
      "license": "CC-BY-4.0 (http://creativecommons.org/licenses/by/4.0/)",
      "source": "https://sketchfab.com/3d-models/fortnite-back-to-the-future-time-machine-031cde61678f407ab6bea19c18c8b2d3",
      "title": "Fortnite: Back to the Future Time Machine"
    },
    "generator": "Sketchfab-16.93.0",
    "version": "2.0"
  },
  "bufferViews": [
    {
      "buffer": 0,
      "byteLength": 584436,
      "name": "floatBufferViews",
      "target": 34963
    },
    {
      "buffer": 0,
      "byteLength": 284760,
      "byteOffset": 584436,
      "byteStride": 8,
      "name": "floatBufferViews",
      "target": 34962
    },
    {
      "buffer": 0,
      "byteLength": 854280,
      "byteOffset": 869196,
      "byteStride": 12,
      "name": "floatBufferViews",
      "target": 34962
    },
    {
      "buffer": 0,
      "byteLength": 567120,
      "byteOffset": 1723476,
      "byteStride": 16,
      "name": "floatBufferViews",
      "target": 34962
    }
  ],
  "buffers": [
    {
      "byteLength": 2290596,
      "uri": "scene.bin"
    }
  ],
  "extensionsUsed": [
    "KHR_materials_emissive_strength",
    "KHR_materials_specular",
    "KHR_materials_transmission"
  ],
  "images": [
    {
      "uri": "textures/Chassis_baseColor.png"
    },
    {
      "uri": "textures/Chassis_metallicRoughness.png"
    },
    {
      "uri": "textures/Chassis_emissive.png"
    },
    {
      "uri": "textures/Chassis_normal.png"
    },
    {
      "uri": "textures/Chassis_specularf0.png"
    },
    {
      "uri": "textures/Interior_baseColor.png"
    },
    {
      "uri": "textures/Interior_metallicRoughness.png"
    },
    {
      "uri": "textures/Interior_emissive.png"
    },
    {
      "uri": "textures/Interior_normal.png"
    },
    {
      "uri": "textures/Interior_specularf0.png"
    },
    {
      "uri": "textures/Mainbody_normal.png"
    },
    {
      "uri": "textures/material_baseColor.png"
    },
    {
      "uri": "textures/material_metallicRoughness.png"
    },
    {
      "uri": "textures/material_normal.png"
    },
    {
      "uri": "textures/Tire_normal.png"
    }
  ],
  "materials": [
    {
      "doubleSided": true,
      "emissiveFactor": [
        1.0,
        1.0,
        1.0
      ],
      "emissiveTexture": {
        "index": 2
      },
      "extensions": {
        "KHR_materials_emissive_strength": {
          "emissiveStrength": 10.0
        },
        "KHR_materials_specular": {
          "specularColorFactor": [
            1.0,
            1.0,
            1.0
          ],
          "specularFactor": 1.0,
          "specularTexture": {
            "index": 4
          }
        }
      },
      "name": "Chassis",
      "normalTexture": {
        "index": 3
      },
      "pbrMetallicRoughness": {
        "baseColorTexture": {
          "index": 0
        },
        "metallicRoughnessTexture": {
          "index": 1
        },
        "roughnessFactor": 0.15
      }
    },
    {
      "alphaMode": "BLEND",
      "doubleSided": true,
      "extensions": {
        "KHR_materials_specular": {
          "specularColorFactor": [
            1.0,
            1.0,
            1.0
          ],
          "specularFactor": 1.0
        },
        "KHR_materials_transmission": {
          "transmissionFactor": 1.0
        }
      },
      "name": "Glass",
      "pbrMetallicRoughness": {
        "baseColorFactor": [
          0.4658348552926145,
          0.4612556873403092,
          0.4612556873403092,
          0.25
        ],
        "roughnessFactor": 0.0
      }
    },
    {
      "doubleSided": true,
      "emissiveFactor": [
        1.0,
        1.0,
        1.0
      ],
      "emissiveTexture": {
        "index": 7
      },
      "extensions": {
        "KHR_materials_specular": {
          "specularColorFactor": [
            1.0,
            1.0,
            1.0
          ],
          "specularFactor": 1.0,
          "specularTexture": {
            "index": 9
          }
        }
      },
      "name": "Interior",
      "normalTexture": {
        "index": 8
      },
      "pbrMetallicRoughness": {
        "baseColorTexture": {
          "index": 5
        },
        "metallicRoughnessTexture": {
          "index": 6
        },
        "roughnessFactor": 0.15
      }
    },
    {
      "doubleSided": true,
      "extensions": {
        "KHR_materials_specular": {
          "specularColorFactor": [
            1.0,
            1.0,
            1.0
          ],
          "specularFactor": 1.0
        }
      },
      "name": "Mainbody",
      "normalTexture": {
        "index": 10
      },
      "pbrMetallicRoughness": {
        "baseColorFactor": [
          0.2788942634768104,
          0.2788942634768104,
          0.2788942634768104,
          1.0
        ],
        "roughnessFactor": 0.15
      }
    },
    {
      "doubleSided": true,
      "extensions": {
        "KHR_materials_specular": {
          "specularColorFactor": [
            1.0,
            1.0,
            1.0
          ],
          "specularFactor": 1.0
        }
      },
      "name": "material",
      "normalTexture": {
        "index": 13
      },
      "pbrMetallicRoughness": {
        "baseColorTexture": {
          "index": 11
        },
        "metallicRoughnessTexture": {
          "index": 12
        },
        "roughnessFactor": 0.15
      }
    },
    {
      "doubleSided": true,
      "name": "Tire",
      "normalTexture": {
        "index": 14
      },
      "pbrMetallicRoughness": {
        "baseColorFactor": [
          0.0013699005452204192,
          0.0013699005452204192,
          0.0013699005452204192,
          1.0
        ],
        "metallicFactor": 0.5,
        "roughnessFactor": 0.6
      }
    },
    {
      "doubleSided": true,
      "extensions": {
        "KHR_materials_specular": {
          "specularColorFactor": [
            1.0,
            1.0,
            1.0
          ],
          "specularFactor": 1.0
        }
      },
      "name": "Trim",
      "normalTexture": {
        "index": 10
      },
      "pbrMetallicRoughness": {
        "baseColorFactor": [
          0.0,
          0.0,
          0.0,
          1.0
        ],
        "metallicFactor": 0.5,
        "roughnessFactor": 0.5
      }
    }
  ],
  "meshes": [
    {
      "name": "Object_0",
      "primitives": [
        {
          "attributes": {
            "NORMAL": 1,
            "POSITION": 0,
            "TANGENT": 2,
            "TEXCOORD_0": 3
          },
          "indices": 4,
          "material": 0,
          "mode": 4
        }
      ]
    },
    {
      "name": "Object_1",
      "primitives": [
        {
          "attributes": {
            "NORMAL": 6,
            "POSITION": 5,
            "TEXCOORD_0": 7
          },
          "indices": 8,
          "material": 1,
          "mode": 4
        }
      ]
    },
    {
      "name": "Object_2",
      "primitives": [
        {
          "attributes": {
            "NORMAL": 10,
            "POSITION": 9,
            "TANGENT": 11,
            "TEXCOORD_0": 12
          },
          "indices": 13,
          "material": 2,
          "mode": 4
        }
      ]
    },
    {
      "name": "Object_3",
      "primitives": [
        {
          "attributes": {
            "NORMAL": 15,
            "POSITION": 14,
            "TANGENT": 16,
            "TEXCOORD_0": 17
          },
          "indices": 18,
          "material": 3,
          "mode": 4
        }
      ]
    },
    {
      "name": "Object_4",
      "primitives": [
        {
          "attributes": {
            "NORMAL": 20,
            "POSITION": 19,
            "TANGENT": 21,
            "TEXCOORD_0": 22
          },
          "indices": 23,
          "material": 4,
          "mode": 4
        }
      ]
    },
    {
      "name": "Object_5",
      "primitives": [
        {
          "attributes": {
            "NORMAL": 25,
            "POSITION": 24,
            "TANGENT": 26,
            "TEXCOORD_0": 27
          },
          "indices": 28,
          "material": 5,
          "mode": 4
        }
      ]
    },
    {
      "name": "Object_6",
      "primitives": [
        {
          "attributes": {
            "NORMAL": 30,
            "POSITION": 29,
            "TANGENT": 31,
            "TEXCOORD_0": 32
          },
          "indices": 33,
          "material": 6,
          "mode": 4
        }
      ]
    }
  ],
  "nodes": [
    {
      "children": [
        1
      ],
      "matrix": [
        1.0,
        0.0,
        0.0,
        0.0,
        0.0,
        2.220446049250313e-16,
        -1.0,
        0.0,
        0.0,
        1.0,
        2.220446049250313e-16,
        0.0,
        0.0,
        0.0,
        0.0,
        1.0
      ],
      "name": "Sketchfab_model"
    },
    {
      "children": [
        2,
        3,
        4,
        5,
        6,
        7,
        8
      ],
      "name": "DeLorian BTTF.obj.cleaner.materialmerger.gles"
    },
    {
      "mesh": 0,
      "name": "Object_2"
    },
    {
      "mesh": 1,
      "name": "Object_3"
    },
    {
      "mesh": 2,
      "name": "Object_4"
    },
    {
      "mesh": 3,
      "name": "Object_5"
    },
    {
      "mesh": 4,
      "name": "Object_6"
    },
    {
      "mesh": 5,
      "name": "Object_7"
    },
    {
      "mesh": 6,
      "name": "Object_8"
    }
  ],
  "samplers": [
    {
      "magFilter": 9729,
      "minFilter": 9987,
      "wrapS": 10497,
      "wrapT": 10497
    }
  ],
  "scene": 0,
  "scenes": [
    {
      "name": "Sketchfab_Scene",
      "nodes": [
        0
      ]
    }
  ],
  "textures": [
    {
      "sampler": 0,
      "source": 0
    },
    {
      "sampler": 0,
      "source": 1
    },
    {
      "sampler": 0,
      "source": 2
    },
    {
      "sampler": 0,
      "source": 3
    },
    {
      "sampler": 0,
      "source": 4
    },
    {
      "sampler": 0,
      "source": 5
    },
    {
      "sampler": 0,
      "source": 6
    },
    {
      "sampler": 0,
      "source": 7
    },
    {
      "sampler": 0,
      "source": 8
    },
    {
      "sampler": 0,
      "source": 9
    },
    {
      "sampler": 0,
      "source": 10
    },
    {
      "sampler": 0,
      "source": 11
    },
    {
      "sampler": 0,
      "source": 12
    },
    {
      "sampler": 0,
      "source": 13
    },
    {
      "sampler": 0,
      "source": 14
    }
  ]
}
